<svg width="288" height="58" viewBox="0 0 288 58" fill="none" xmlns="http://www.w3.org/2000/svg">
<path d="M34.249 13.8633L48.8906 37.7441L54 46.0781L46.0439 52.0273L38.6719 39.9384H24.0732L28.0879 32.7871H34.1455L26.9932 21.0146L10.5693 52.0273L4 46.0781L8.88965 36.7109L20.8154 13.8633L26.9932 2.02731L34.249 13.8633Z" fill="url(#paint0_linear_0_1)"/>
<path d="M34.249 13.8633L33.3965 14.3859L33.3965 14.3859L34.249 13.8633ZM48.8906 37.7441L49.7432 37.2214L49.7431 37.2214L48.8906 37.7441ZM54 46.0781L54.5989 46.879L55.3292 46.3329L54.8525 45.5554L54 46.0781ZM46.0439 52.0273L45.1902 52.548L45.7625 53.4864L46.6428 52.8282L46.0439 52.0273ZM38.6719 39.9384L39.5256 39.4178L39.2333 38.9384H38.6719V39.9384ZM24.0732 39.9384L23.2013 39.4489L22.3651 40.9384H24.0732V39.9384ZM28.0879 32.7871V31.7871H27.5025L27.2159 32.2976L28.0879 32.7871ZM34.1455 32.7871V33.7871H35.9231L35.0001 32.2678L34.1455 32.7871ZM26.9932 21.0146L27.8478 20.4954L26.9335 18.9905L26.1094 20.5466L26.9932 21.0146ZM10.5693 52.0273L9.89808 52.7685L10.8512 53.6317L11.4531 52.4953L10.5693 52.0273ZM4 46.0781L3.11351 45.6153L2.75586 46.3005L3.32874 46.8193L4 46.0781ZM8.88965 36.7109L9.77614 37.1737L9.77615 37.1736L8.88965 36.7109ZM20.8154 13.8633L21.7019 14.326L21.7019 14.326L20.8154 13.8633ZM26.9932 2.02731L27.8457 1.50467L26.9233 -3.16863e-06L26.1067 1.5646L26.9932 2.02731ZM34.249 13.8633L33.3965 14.3859L48.0381 38.2668L48.8906 37.7441L49.7431 37.2214L35.1015 13.3406L34.249 13.8633ZM48.8906 37.7441L48.0381 38.2668L53.1475 46.6008L54 46.0781L54.8525 45.5554L49.7432 37.2214L48.8906 37.7441ZM54 46.0781L53.4011 45.2772L45.4451 51.2265L46.0439 52.0273L46.6428 52.8282L54.5989 46.879L54 46.0781ZM46.0439 52.0273L46.8977 51.5067L39.5256 39.4178L38.6719 39.9384L37.8181 40.4591L45.1902 52.548L46.0439 52.0273ZM38.6719 39.9384V38.9384H24.0732V39.9384V40.9384H38.6719V39.9384ZM24.0732 39.9384L24.9452 40.428L28.9599 33.2766L28.0879 32.7871L27.2159 32.2976L23.2013 39.4489L24.0732 39.9384ZM28.0879 32.7871V33.7871H34.1455V32.7871V31.7871H28.0879V32.7871ZM34.1455 32.7871L35.0001 32.2678L27.8478 20.4954L26.9932 21.0146L26.1385 21.5338L33.2909 33.3063L34.1455 32.7871ZM26.9932 21.0146L26.1094 20.5466L9.68561 51.5593L10.5693 52.0273L11.4531 52.4953L27.8769 21.4826L26.9932 21.0146ZM10.5693 52.0273L11.2406 51.2861L4.67126 45.3369L4 46.0781L3.32874 46.8193L9.89808 52.7685L10.5693 52.0273ZM4 46.0781L4.88649 46.5408L9.77614 37.1737L8.88965 36.7109L8.00316 36.2482L3.11351 45.6153L4 46.0781ZM8.88965 36.7109L9.77615 37.1736L21.7019 14.326L20.8154 13.8633L19.9289 13.4005L8.00315 36.2482L8.88965 36.7109ZM20.8154 13.8633L21.7019 14.326L27.8797 2.49002L26.9932 2.02731L26.1067 1.5646L19.9289 13.4005L20.8154 13.8633ZM26.9932 2.02731L26.1406 2.54996L33.3965 14.3859L34.249 13.8633L35.1016 13.3406L27.8457 1.50467L26.9932 2.02731Z" fill="white"/>
<g filter="url(#filter0_d_0_1)">
<mask id="path-3-outside-1_0_1" maskUnits="userSpaceOnUse" x="63" y="11.0273" width="221" height="39" fill="black">
<rect fill="white" x="63" y="11.0273" width="221" height="39"/>
<path d="M93.0114 13.1182V48.0273H88.1705L70.4261 22.425H70.1023V48.0273H64.8352V13.1182H69.7102L87.4716 38.7546H87.7955V13.1182H93.0114ZM108.375 48.0273V13.1182H113.642V29.7887H114.068L128.71 13.1182H135.341L121.261 28.8341L135.392 48.0273H129.051L117.767 32.4307L113.642 37.1694V48.0273H108.375ZM170.378 13.1182H175.663V36.0784C175.663 38.5216 175.089 40.6864 173.941 42.5728C172.793 44.4478 171.18 45.925 169.1 47.0046C167.021 48.0728 164.583 48.6069 161.788 48.6069C159.003 48.6069 156.572 48.0728 154.492 47.0046C152.413 45.925 150.799 44.4478 149.651 42.5728C148.503 40.6864 147.93 38.5216 147.93 36.0784V13.1182H153.197V35.6523C153.197 37.2319 153.543 38.6353 154.236 39.8625C154.941 41.0898 155.935 42.0557 157.219 42.7603C158.503 43.4534 160.026 43.8 161.788 43.8C163.56 43.8 165.089 43.4534 166.373 42.7603C167.668 42.0557 168.657 41.0898 169.339 39.8625C170.032 38.6353 170.378 37.2319 170.378 35.6523V13.1182ZM219.995 24.4705H214.676C214.472 23.3341 214.091 22.3341 213.534 21.4705C212.978 20.6069 212.296 19.8739 211.489 19.2716C210.682 18.6694 209.779 18.2148 208.779 17.908C207.79 17.6012 206.739 17.4478 205.625 17.4478C203.614 17.4478 201.813 17.9534 200.222 18.9648C198.642 19.9762 197.392 21.4591 196.472 23.4137C195.563 25.3682 195.108 27.7546 195.108 30.5728C195.108 33.4137 195.563 35.8114 196.472 37.7659C197.392 39.7205 198.648 41.1978 200.239 42.1978C201.83 43.1978 203.62 43.6978 205.608 43.6978C206.71 43.6978 207.756 43.55 208.745 43.2546C209.745 42.9478 210.648 42.4989 211.455 41.908C212.262 41.3171 212.943 40.5955 213.5 39.7432C214.068 38.8796 214.46 37.8909 214.676 36.7773L219.995 36.7944C219.71 38.5103 219.159 40.0898 218.341 41.533C217.534 42.9648 216.495 44.2034 215.222 45.2489C213.96 46.283 212.517 47.0841 210.892 47.6523C209.267 48.2205 207.495 48.5046 205.574 48.5046C202.551 48.5046 199.858 47.7887 197.495 46.3569C195.131 44.9137 193.267 42.8512 191.904 40.1694C190.551 37.4875 189.875 34.2887 189.875 30.5728C189.875 26.8455 190.557 23.6466 191.921 20.9762C193.284 18.2944 195.148 16.2375 197.512 14.8057C199.875 13.3625 202.563 12.6409 205.574 12.6409C207.426 12.6409 209.154 12.908 210.756 13.4421C212.37 13.9648 213.818 14.7375 215.103 15.7603C216.387 16.7716 217.449 18.0103 218.29 19.4762C219.131 20.9307 219.699 22.5955 219.995 24.4705ZM233.977 48.0273V13.1182H239.244V28.2887H256.648V13.1182H261.932V48.0273H256.648V32.8057H239.244V48.0273H233.977ZM282.549 13.1182V48.0273H277.282V13.1182H282.549Z"/>
</mask>
<path d="M93.0114 13.1182V48.0273H88.1705L70.4261 22.425H70.1023V48.0273H64.8352V13.1182H69.7102L87.4716 38.7546H87.7955V13.1182H93.0114ZM108.375 48.0273V13.1182H113.642V29.7887H114.068L128.71 13.1182H135.341L121.261 28.8341L135.392 48.0273H129.051L117.767 32.4307L113.642 37.1694V48.0273H108.375ZM170.378 13.1182H175.663V36.0784C175.663 38.5216 175.089 40.6864 173.941 42.5728C172.793 44.4478 171.18 45.925 169.1 47.0046C167.021 48.0728 164.583 48.6069 161.788 48.6069C159.003 48.6069 156.572 48.0728 154.492 47.0046C152.413 45.925 150.799 44.4478 149.651 42.5728C148.503 40.6864 147.93 38.5216 147.93 36.0784V13.1182H153.197V35.6523C153.197 37.2319 153.543 38.6353 154.236 39.8625C154.941 41.0898 155.935 42.0557 157.219 42.7603C158.503 43.4534 160.026 43.8 161.788 43.8C163.56 43.8 165.089 43.4534 166.373 42.7603C167.668 42.0557 168.657 41.0898 169.339 39.8625C170.032 38.6353 170.378 37.2319 170.378 35.6523V13.1182ZM219.995 24.4705H214.676C214.472 23.3341 214.091 22.3341 213.534 21.4705C212.978 20.6069 212.296 19.8739 211.489 19.2716C210.682 18.6694 209.779 18.2148 208.779 17.908C207.79 17.6012 206.739 17.4478 205.625 17.4478C203.614 17.4478 201.813 17.9534 200.222 18.9648C198.642 19.9762 197.392 21.4591 196.472 23.4137C195.563 25.3682 195.108 27.7546 195.108 30.5728C195.108 33.4137 195.563 35.8114 196.472 37.7659C197.392 39.7205 198.648 41.1978 200.239 42.1978C201.83 43.1978 203.62 43.6978 205.608 43.6978C206.71 43.6978 207.756 43.55 208.745 43.2546C209.745 42.9478 210.648 42.4989 211.455 41.908C212.262 41.3171 212.943 40.5955 213.5 39.7432C214.068 38.8796 214.46 37.8909 214.676 36.7773L219.995 36.7944C219.71 38.5103 219.159 40.0898 218.341 41.533C217.534 42.9648 216.495 44.2034 215.222 45.2489C213.96 46.283 212.517 47.0841 210.892 47.6523C209.267 48.2205 207.495 48.5046 205.574 48.5046C202.551 48.5046 199.858 47.7887 197.495 46.3569C195.131 44.9137 193.267 42.8512 191.904 40.1694C190.551 37.4875 189.875 34.2887 189.875 30.5728C189.875 26.8455 190.557 23.6466 191.921 20.9762C193.284 18.2944 195.148 16.2375 197.512 14.8057C199.875 13.3625 202.563 12.6409 205.574 12.6409C207.426 12.6409 209.154 12.908 210.756 13.4421C212.37 13.9648 213.818 14.7375 215.103 15.7603C216.387 16.7716 217.449 18.0103 218.29 19.4762C219.131 20.9307 219.699 22.5955 219.995 24.4705ZM233.977 48.0273V13.1182H239.244V28.2887H256.648V13.1182H261.932V48.0273H256.648V32.8057H239.244V48.0273H233.977ZM282.549 13.1182V48.0273H277.282V13.1182H282.549Z" fill="white"/>
<path d="M93.0114 13.1182H94.0114V12.1182H93.0114V13.1182ZM93.0114 48.0273V49.0273H94.0114V48.0273H93.0114ZM88.1705 48.0273L87.3486 48.5969L87.6468 49.0273H88.1705V48.0273ZM70.4261 22.425L71.248 21.8554L70.9498 21.425H70.4261V22.425ZM70.1023 22.425V21.425H69.1023V22.425H70.1023ZM70.1023 48.0273V49.0273H71.1023V48.0273H70.1023ZM64.8352 48.0273H63.8352V49.0273H64.8352V48.0273ZM64.8352 13.1182V12.1182H63.8352V13.1182H64.8352ZM69.7102 13.1182L70.5322 12.5487L70.234 12.1182H69.7102V13.1182ZM87.4716 38.7546L86.6496 39.3241L86.9479 39.7546H87.4716V38.7546ZM87.7955 38.7546V39.7546H88.7955V38.7546H87.7955ZM87.7955 13.1182V12.1182H86.7955V13.1182H87.7955ZM93.0114 13.1182H92.0114V48.0273H93.0114H94.0114V13.1182H93.0114ZM93.0114 48.0273V47.0273H88.1705V48.0273V49.0273H93.0114V48.0273ZM88.1705 48.0273L88.9924 47.4577L71.248 21.8554L70.4261 22.425L69.6042 22.9947L87.3486 48.5969L88.1705 48.0273ZM70.4261 22.425V21.425H70.1023V22.425V23.425H70.4261V22.425ZM70.1023 22.425H69.1023V48.0273H70.1023H71.1023V22.425H70.1023ZM70.1023 48.0273V47.0273H64.8352V48.0273V49.0273H70.1023V48.0273ZM64.8352 48.0273H65.8352V13.1182H64.8352H63.8352V48.0273H64.8352ZM64.8352 13.1182V14.1182H69.7102V13.1182V12.1182H64.8352V13.1182ZM69.7102 13.1182L68.8882 13.6877L86.6496 39.3241L87.4716 38.7546L88.2936 38.1851L70.5322 12.5487L69.7102 13.1182ZM87.4716 38.7546V39.7546H87.7955V38.7546V37.7546H87.4716V38.7546ZM87.7955 38.7546H88.7955V13.1182H87.7955H86.7955V38.7546H87.7955ZM87.7955 13.1182V14.1182H93.0114V13.1182V12.1182H87.7955V13.1182ZM108.375 48.0273H107.375V49.0273H108.375V48.0273ZM108.375 13.1182V12.1182H107.375V13.1182H108.375ZM113.642 13.1182H114.642V12.1182H113.642V13.1182ZM113.642 29.7887H112.642V30.7887H113.642V29.7887ZM114.068 29.7887V30.7887H114.52L114.819 30.4486L114.068 29.7887ZM128.71 13.1182V12.1182H128.257L127.958 12.4583L128.71 13.1182ZM135.341 13.1182L136.085 13.7855L137.579 12.1182H135.341V13.1182ZM121.261 28.8341L120.516 28.1669L119.974 28.7724L120.456 29.427L121.261 28.8341ZM135.392 48.0273V49.0273H137.37L136.197 47.4344L135.392 48.0273ZM129.051 48.0273L128.241 48.6135L128.54 49.0273H129.051V48.0273ZM117.767 32.4307L118.577 31.8446L117.839 30.8246L117.012 31.7741L117.767 32.4307ZM113.642 37.1694L112.887 36.5128L112.642 36.7951V37.1694H113.642ZM113.642 48.0273V49.0273H114.642V48.0273H113.642ZM108.375 48.0273H109.375V13.1182H108.375H107.375V48.0273H108.375ZM108.375 13.1182V14.1182H113.642V13.1182V12.1182H108.375V13.1182ZM113.642 13.1182H112.642V29.7887H113.642H114.642V13.1182H113.642ZM113.642 29.7887V30.7887H114.068V29.7887V28.7887H113.642V29.7887ZM114.068 29.7887L114.819 30.4486L129.461 13.7781L128.71 13.1182L127.958 12.4583L113.316 29.1288L114.068 29.7887ZM128.71 13.1182V14.1182H135.341V13.1182V12.1182H128.71V13.1182ZM135.341 13.1182L134.596 12.451L120.516 28.1669L121.261 28.8341L122.006 29.5014L136.085 13.7855L135.341 13.1182ZM121.261 28.8341L120.456 29.427L134.586 48.6202L135.392 48.0273L136.197 47.4344L122.066 28.2412L121.261 28.8341ZM135.392 48.0273V47.0273H129.051V48.0273V49.0273H135.392V48.0273ZM129.051 48.0273L129.861 47.4411L118.577 31.8446L117.767 32.4307L116.956 33.0169L128.241 48.6135L129.051 48.0273ZM117.767 32.4307L117.012 31.7741L112.887 36.5128L113.642 37.1694L114.396 37.8259L118.521 33.0873L117.767 32.4307ZM113.642 37.1694H112.642V48.0273H113.642H114.642V37.1694H113.642ZM113.642 48.0273V47.0273H108.375V48.0273V49.0273H113.642V48.0273ZM170.378 13.1182V12.1182H169.378V13.1182H170.378ZM175.663 13.1182H176.663V12.1182H175.663V13.1182ZM173.941 42.5728L174.794 43.0948L174.795 43.0926L173.941 42.5728ZM169.1 47.0046L169.557 47.8941L169.561 47.8921L169.1 47.0046ZM154.492 47.0046L154.031 47.8921L154.035 47.8941L154.492 47.0046ZM149.651 42.5728L148.797 43.0926L148.798 43.0948L149.651 42.5728ZM147.93 13.1182V12.1182H146.93V13.1182H147.93ZM153.197 13.1182H154.197V12.1182H153.197V13.1182ZM154.236 39.8625L153.366 40.3543L153.369 40.3604L154.236 39.8625ZM157.219 42.7603L156.738 43.637L156.744 43.6402L157.219 42.7603ZM166.373 42.7603L166.848 43.6402L166.851 43.6388L166.373 42.7603ZM169.339 39.8625L168.468 39.3707L168.465 39.3769L169.339 39.8625ZM170.378 13.1182V14.1182H175.663V13.1182V12.1182H170.378V13.1182ZM175.663 13.1182H174.663V36.0784H175.663H176.663V13.1182H175.663ZM175.663 36.0784H174.663C174.663 38.3584 174.129 40.3396 173.087 42.053L173.941 42.5728L174.795 43.0926C176.048 41.0332 176.663 38.6849 176.663 36.0784H175.663ZM173.941 42.5728L173.088 42.0507C172.042 43.7602 170.568 45.1156 168.639 46.1171L169.1 47.0046L169.561 47.8921C171.791 46.7345 173.545 45.1354 174.794 43.0948L173.941 42.5728ZM169.1 47.0046L168.643 46.1151C166.73 47.0977 164.455 47.6069 161.788 47.6069V48.6069V49.6069C164.711 49.6069 167.311 49.0478 169.557 47.8941L169.1 47.0046ZM161.788 48.6069V47.6069C159.132 47.6069 156.863 47.098 154.949 46.1151L154.492 47.0046L154.035 47.8941C156.281 49.0475 158.875 49.6069 161.788 49.6069V48.6069ZM154.492 47.0046L154.953 46.1171C153.024 45.1156 151.55 43.7602 150.504 42.0507L149.651 42.5728L148.798 43.0948C150.047 45.1354 151.801 46.7345 154.031 47.8921L154.492 47.0046ZM149.651 42.5728L150.505 42.053C149.463 40.3396 148.93 38.3584 148.93 36.0784H147.93H146.93C146.93 38.6849 147.544 41.0332 148.797 43.0926L149.651 42.5728ZM147.93 36.0784H148.93V13.1182H147.93H146.93V36.0784H147.93ZM147.93 13.1182V14.1182H153.197V13.1182V12.1182H147.93V13.1182ZM153.197 13.1182H152.197V35.6523H153.197H154.197V13.1182H153.197ZM153.197 35.6523H152.197C152.197 37.383 152.578 38.9596 153.366 40.3543L154.236 39.8625L155.107 39.3707C154.509 38.311 154.197 37.0807 154.197 35.6523H153.197ZM154.236 39.8625L153.369 40.3604C154.169 41.7528 155.299 42.8473 156.738 43.637L157.219 42.7603L157.7 41.8836C156.571 41.2642 155.713 40.4268 155.104 39.3647L154.236 39.8625ZM157.219 42.7603L156.744 43.6402C158.202 44.427 159.894 44.8 161.788 44.8V43.8V42.8C160.158 42.8 158.805 42.4799 157.694 41.8803L157.219 42.7603ZM161.788 43.8V44.8C163.691 44.8 165.39 44.4274 166.848 43.6402L166.373 42.7603L165.898 41.8803C164.788 42.4795 163.43 42.8 161.788 42.8V43.8ZM166.373 42.7603L166.851 43.6388C168.304 42.8483 169.434 41.7499 170.213 40.3482L169.339 39.8625L168.465 39.3769C167.88 40.4297 167.033 41.2631 165.895 41.8818L166.373 42.7603ZM169.339 39.8625L170.209 40.3543C170.997 38.9596 171.378 37.383 171.378 35.6523H170.378H169.378C169.378 37.0807 169.067 38.311 168.468 39.3707L169.339 39.8625ZM170.378 35.6523H171.378V13.1182H170.378H169.378V35.6523H170.378ZM219.995 24.4705V25.4705H221.164L220.982 24.3148L219.995 24.4705ZM214.676 24.4705L213.692 24.6476L213.84 25.4705H214.676V24.4705ZM211.489 19.2716L212.087 18.4703L212.087 18.4703L211.489 19.2716ZM208.779 17.908L208.482 18.8631L208.485 18.864L208.779 17.908ZM200.222 18.9648L199.685 18.1209L199.683 18.1227L200.222 18.9648ZM196.472 23.4137L195.567 22.9876L195.565 22.9919L196.472 23.4137ZM196.472 37.7659L195.565 38.1877L195.567 38.192L196.472 37.7659ZM200.239 42.1978L199.707 43.0444L199.707 43.0444L200.239 42.1978ZM208.745 43.2546L209.031 44.2127L209.038 44.2106L208.745 43.2546ZM213.5 39.7432L212.665 39.1936L212.663 39.1963L213.5 39.7432ZM214.676 36.7773L214.68 35.7773L213.852 35.7747L213.695 36.587L214.676 36.7773ZM219.995 36.7944L220.981 36.9577L221.173 35.7981L219.998 35.7944L219.995 36.7944ZM218.341 41.533L217.471 41.0398L217.47 41.0421L218.341 41.533ZM215.222 45.2489L215.856 46.0222L215.857 46.0216L215.222 45.2489ZM210.892 47.6523L211.222 48.5963L211.222 48.5963L210.892 47.6523ZM197.495 46.3569L196.973 47.2103L196.976 47.2122L197.495 46.3569ZM191.904 40.1694L191.011 40.6196L191.012 40.6226L191.904 40.1694ZM191.921 20.9762L192.811 21.431L192.812 21.4294L191.921 20.9762ZM197.512 14.8057L198.03 15.661L198.033 15.6592L197.512 14.8057ZM210.756 13.4421L210.44 14.3908L210.448 14.3934L210.756 13.4421ZM215.103 15.7603L214.479 16.5425L214.484 16.5459L215.103 15.7603ZM218.29 19.4762L217.423 19.9738L217.424 19.9767L218.29 19.4762ZM219.995 24.4705V23.4705H214.676V24.4705V25.4705H219.995V24.4705ZM214.676 24.4705L215.661 24.2933C215.436 23.0431 215.011 21.9161 214.375 20.9286L213.534 21.4705L212.694 22.0124C213.171 22.7522 213.508 23.6251 213.692 24.6476L214.676 24.4705ZM213.534 21.4705L214.375 20.9286C213.755 19.9668 212.991 19.1454 212.087 18.4703L211.489 19.2716L210.891 20.073C211.6 20.6024 212.2 21.2469 212.694 22.0124L213.534 21.4705ZM211.489 19.2716L212.087 18.4703C211.185 17.7967 210.177 17.2911 209.072 16.952L208.779 17.908L208.485 18.864C209.38 19.1385 210.179 19.542 210.891 20.073L211.489 19.2716ZM208.779 17.908L209.075 16.9529C207.983 16.6142 206.832 16.4478 205.625 16.4478V17.4478V18.4478C206.646 18.4478 207.597 18.5882 208.482 18.8631L208.779 17.908ZM205.625 17.4478V16.4478C203.437 16.4478 201.447 17.0007 199.685 18.1209L200.222 18.9648L200.758 19.8087C202.178 18.9062 203.791 18.4478 205.625 18.4478V17.4478ZM200.222 18.9648L199.683 18.1227C197.922 19.2502 196.555 20.8892 195.567 22.9876L196.472 23.4137L197.377 23.8397C198.229 22.0291 199.363 20.7021 200.761 19.807L200.222 18.9648ZM196.472 23.4137L195.565 22.9919C194.579 25.1126 194.108 27.6518 194.108 30.5728H195.108H196.108C196.108 27.8574 196.547 25.6238 197.379 23.8354L196.472 23.4137ZM195.108 30.5728H194.108C194.108 33.5151 194.578 36.0661 195.565 38.1877L196.472 37.7659L197.379 37.3442C196.547 35.5567 196.108 33.3122 196.108 30.5728H195.108ZM196.472 37.7659L195.567 38.192C196.557 40.2929 197.931 41.9281 199.707 43.0444L200.239 42.1978L200.771 41.3511C199.365 40.4674 198.228 39.148 197.377 37.3399L196.472 37.7659ZM200.239 42.1978L199.707 43.0444C201.466 44.1505 203.443 44.6978 205.608 44.6978V43.6978V42.6978C203.796 42.6978 202.193 42.245 200.771 41.3511L200.239 42.1978ZM205.608 43.6978V44.6978C206.801 44.6978 207.943 44.5378 209.031 44.2127L208.745 43.2546L208.458 42.2965C207.569 42.5623 206.62 42.6978 205.608 42.6978V43.6978ZM208.745 43.2546L209.038 44.2106C210.14 43.8725 211.145 43.3747 212.046 42.7148L211.455 41.908L210.864 41.1012C210.151 41.6231 209.349 42.023 208.451 42.2986L208.745 43.2546ZM211.455 41.908L212.046 42.7148C212.951 42.0515 213.716 41.2413 214.337 40.2902L213.5 39.7432L212.663 39.1963C212.171 39.9497 211.572 40.5827 210.864 41.1012L211.455 41.908ZM213.5 39.7432L214.336 40.2928C214.982 39.31 215.42 38.1969 215.658 36.9676L214.676 36.7773L213.695 36.587C213.501 37.585 213.155 38.4492 212.665 39.1936L213.5 39.7432ZM214.676 36.7773L214.673 37.7773L219.991 37.7944L219.995 36.7944L219.998 35.7944L214.68 35.7773L214.676 36.7773ZM219.995 36.7944L219.008 36.631C218.742 38.2367 218.229 39.7038 217.471 41.0398L218.341 41.533L219.211 42.0262C220.09 40.4759 220.679 38.7839 220.981 36.9577L219.995 36.7944ZM218.341 41.533L217.47 41.0421C216.724 42.3659 215.764 43.5091 214.587 44.4762L215.222 45.2489L215.857 46.0216C217.225 44.8978 218.345 43.5637 219.212 42.0239L218.341 41.533ZM215.222 45.2489L214.588 44.4756C213.422 45.4314 212.083 46.1767 210.562 46.7084L210.892 47.6523L211.222 48.5963C212.952 47.9916 214.499 47.1346 215.856 46.0222L215.222 45.2489ZM210.892 47.6523L210.562 46.7084C209.055 47.2354 207.395 47.5046 205.574 47.5046V48.5046V49.5046C207.594 49.5046 209.48 49.2056 211.222 48.5963L210.892 47.6523ZM205.574 48.5046V47.5046C202.716 47.5046 200.206 46.8299 198.013 45.5016L197.495 46.3569L196.976 47.2122C199.511 48.7474 202.386 49.5046 205.574 49.5046V48.5046ZM197.495 46.3569L198.016 45.5034C195.824 44.165 194.082 42.2476 192.795 39.7161L191.904 40.1694L191.012 40.6226C192.452 43.4548 194.438 45.6623 196.973 47.2103L197.495 46.3569ZM191.904 40.1694L192.797 39.7191C191.529 37.2062 190.875 34.1687 190.875 30.5728H189.875H188.875C188.875 34.4087 189.573 37.7689 191.011 40.6196L191.904 40.1694ZM189.875 30.5728H190.875C190.875 26.9659 191.535 23.9305 192.811 21.431L191.921 20.9762L191.03 20.5214C189.579 23.3628 188.875 26.7251 188.875 30.5728H189.875ZM191.921 20.9762L192.812 21.4294C194.099 18.8985 195.84 16.9877 198.03 15.661L197.512 14.8057L196.993 13.9504C194.456 15.4873 192.47 17.6902 191.029 20.5229L191.921 20.9762ZM197.512 14.8057L198.033 15.6592C200.226 14.3202 202.73 13.6409 205.574 13.6409V12.6409V11.6409C202.395 11.6409 199.525 12.4049 196.99 13.9522L197.512 14.8057ZM205.574 12.6409V13.6409C207.329 13.6409 208.949 13.8938 210.44 14.3908L210.756 13.4421L211.072 12.4934C209.359 11.9222 207.524 11.6409 205.574 11.6409V12.6409ZM210.756 13.4421L210.448 14.3934C211.951 14.8804 213.292 15.5971 214.479 16.5425L215.103 15.7603L215.726 14.978C214.344 13.878 212.788 13.0492 211.064 12.4908L210.756 13.4421ZM215.103 15.7603L214.484 16.5459C215.664 17.4753 216.643 18.615 217.423 19.9738L218.29 19.4762L219.157 18.9786C218.255 17.4055 217.109 16.0679 215.721 14.9747L215.103 15.7603ZM218.29 19.4762L217.424 19.9767C218.196 21.3119 218.728 22.857 219.007 24.6261L219.995 24.4705L220.982 24.3148C220.67 22.334 220.066 20.5496 219.156 18.9757L218.29 19.4762ZM233.977 48.0273H232.977V49.0273H233.977V48.0273ZM233.977 13.1182V12.1182H232.977V13.1182H233.977ZM239.244 13.1182H240.244V12.1182H239.244V13.1182ZM239.244 28.2887H238.244V29.2887H239.244V28.2887ZM256.648 28.2887V29.2887H257.648V28.2887H256.648ZM256.648 13.1182V12.1182H255.648V13.1182H256.648ZM261.932 13.1182H262.932V12.1182H261.932V13.1182ZM261.932 48.0273V49.0273H262.932V48.0273H261.932ZM256.648 48.0273H255.648V49.0273H256.648V48.0273ZM256.648 32.8057H257.648V31.8057H256.648V32.8057ZM239.244 32.8057V31.8057H238.244V32.8057H239.244ZM239.244 48.0273V49.0273H240.244V48.0273H239.244ZM233.977 48.0273H234.977V13.1182H233.977H232.977V48.0273H233.977ZM233.977 13.1182V14.1182H239.244V13.1182V12.1182H233.977V13.1182ZM239.244 13.1182H238.244V28.2887H239.244H240.244V13.1182H239.244ZM239.244 28.2887V29.2887H256.648V28.2887V27.2887H239.244V28.2887ZM256.648 28.2887H257.648V13.1182H256.648H255.648V28.2887H256.648ZM256.648 13.1182V14.1182H261.932V13.1182V12.1182H256.648V13.1182ZM261.932 13.1182H260.932V48.0273H261.932H262.932V13.1182H261.932ZM261.932 48.0273V47.0273H256.648V48.0273V49.0273H261.932V48.0273ZM256.648 48.0273H257.648V32.8057H256.648H255.648V48.0273H256.648ZM256.648 32.8057V31.8057H239.244V32.8057V33.8057H256.648V32.8057ZM239.244 32.8057H238.244V48.0273H239.244H240.244V32.8057H239.244ZM239.244 48.0273V47.0273H233.977V48.0273V49.0273H239.244V48.0273ZM282.549 13.1182H283.549V12.1182H282.549V13.1182ZM282.549 48.0273V49.0273H283.549V48.0273H282.549ZM277.282 48.0273H276.282V49.0273H277.282V48.0273ZM277.282 13.1182V12.1182H276.282V13.1182H277.282ZM282.549 13.1182H281.549V48.0273H282.549H283.549V13.1182H282.549ZM282.549 48.0273V47.0273H277.282V48.0273V49.0273H282.549V48.0273ZM277.282 48.0273H278.282V13.1182H277.282H276.282V48.0273H277.282ZM277.282 13.1182V14.1182H282.549V13.1182V12.1182H277.282V13.1182Z" fill="#5576D3" mask="url(#path-3-outside-1_0_1)"/>
</g>
<defs>
<filter id="filter0_d_0_1" x="59.8352" y="11.641" width="227.714" height="45.9659" filterUnits="userSpaceOnUse" color-interpolation-filters="sRGB">
<feFlood flood-opacity="0" result="BackgroundImageFix"/>
<feColorMatrix in="SourceAlpha" type="matrix" values="0 0 0 0 0 0 0 0 0 0 0 0 0 0 0 0 0 0 127 0" result="hardAlpha"/>
<feOffset dy="4"/>
<feGaussianBlur stdDeviation="2"/>
<feComposite in2="hardAlpha" operator="out"/>
<feColorMatrix type="matrix" values="0 0 0 0 0 0 0 0 0 0 0 0 0 0 0 0 0 0 0.25 0"/>
<feBlend mode="normal" in2="BackgroundImageFix" result="effect1_dropShadow_0_1"/>
<feBlend mode="normal" in="SourceGraphic" in2="effect1_dropShadow_0_1" result="shape"/>
</filter>
<linearGradient id="paint0_linear_0_1" x1="4" y1="41.1968" x2="54.051" y2="39.7026" gradientUnits="userSpaceOnUse">
<stop stop-color="#5576D3"/>
<stop offset="1" stop-color="#2A3A66"/>
</linearGradient>
</defs>
</svg>
